<svg version="1" xmlns="http://www.w3.org/2000/svg" width="960" height="960" viewBox="0 0 720.000000 720.000000"><path d="M240 4.4c-40.7 20.6-79.5 62.8-96.5 105.1-13.1 32.3-18.9 69.5-16.3 103.7.7 8.4 1.2 19.5 1.2 24.7.1 13.8 1.8 12.7 4.4-2.6 1.2-7 3.7-17.8 5.7-23.8 3.5-10.9 12.7-30.8 16.3-35.4 1.9-2.3 1.9-2.3 2.6 13.5.8 17.9 3.7 40.4 6.6 51 1.1 3.8 2 8.5 2 10.2 0 2.9-3.8 12-15.2 36.2-2.2 4.7-6.3 13.4-9.1 19.5-2.8 6-10.8 22.2-17.8 36-43.9 86.2-60.3 128-65 165.5-1.8 14.4-1.6 39.7.5 51.5 3.2 19 11.1 45.1 14.7 49 1.8 1.8.8 2.5-3.5 2.5-8.2 0-14.1 3.7-15.2 9.6-.3 1.7.1 6.5 1 10.5.8 4.1 1.8 9.6 2.1 12.4.8 6.1 2.9 11.3 5.3 13.2 1 .7 3.6 1.2 6.1 1.1l4.5-.2-.3 10c-.3 12.9 1.3 27.1 4.7 40.9l2.7 11 4.3.3c4.9.4 5.2-.4 2.4-7-2.1-4.9-3.8-11.8-4.7-19.6-.4-2.8-1.1-5.2-1.5-5.2-.5 0-1.3 1.9-1.8 4.2l-.9 4.3-.9-5c-1.1-6.1-1.2-29.9-.1-33.7.5-1.9 2.1-3.5 5-4.9 2.3-1.2 7.5-5.5 11.5-9.5 6.4-6.4 7.4-7 8.7-5.7 1.9 1.9 1.9 3.3 0 3.3s-1.9 2.4 0 12.5c3.3 17.3 10.7 42.5 12.6 42.5 1.8 0 1.7-1.9-.2-8.1-3.9-12.4-11.2-44.9-10.3-45.8.2-.2 1.3 1.8 2.4 4.5 6.7 15.9 7.5 17.4 9.1 17.4.5 0 .9-.6.9-1.4 0-1.8-6.5-19.3-8.6-22.9-1.5-2.7-1.3-2.6 7.3 1.9 4.8 2.5 9.3 5.1 10 5.6 3.5 2.8 18.4 38.1 25.2 59.5 3.5 11.1 4.5 13.3 6.1 13.3 1.1 0 2-.1 2-.3 0-.7-10.1-30.2-12.3-36-1.5-3.7-2.4-6.7-2.2-6.7.2 0 2.7 4.4 5.5 9.7 8.8 16.6 20 33.3 22.1 33.3 2.7 0 2.5-.7-2.5-8.3-14.6-22.2-30.6-52.8-30.6-58.5 0-.9.9-1.1 3.4-.7 7.6 1.5 10.2-3.2 11.2-19.2.7-12.6-.6-21.6-3.7-24.9l-2.1-2.3 3.5-5.8c3.8-6.2 9.7-19.8 11.8-27.3.7-2.5 1.5-4.8 1.9-5.3.3-.4 1.1 4.8 1.8 11.5 1.2 13.4 5.1 33.5 8.4 43.8 3.2 9.9 8.6 24.1 10.7 28 3.2 5.9 3.2 8.9.5 26-2.4 15.3-5.3 37.2-5.4 41.2 0 1.1.7 1.8 1.9 1.8 2 0 2.3-1.1 3.6-13.5.3-3.3 2.2-16.7 4.1-29.8 3.8-26.6 4.3-34.7 1.9-34.7-1.1 0-1.5 1.3-1.6 5.2v5.3l-3-6.5c-10.1-21.8-17.1-52.2-18.5-80.8-.6-11.2-.4-12.6 4-33.7 2.6-12.1 4.9-22.2 5.2-22.4.3-.3 1.3 0 2.2.5 1.3.9 1.8 2.9 2 9.1.3 7.4.5 8.2 3.2 10.8 1.7 1.6 3 3.8 3 5 0 1.2.9 3 2 4 1.3 1.2 2 3.1 2 5.6 0 3.1.8 4.6 3.8 7.9 2.2 2.2 4.6 4 5.5 4 1.1 0 1.7.8 1.7 2.2 0 3.2 1.1 4.5 4.3 5.3 2 .6 2.7 1.3 2.7 3.2 0 2.4 5.9 9.3 8 9.3.5 0 1.2 2.1 1.6 4.7.9 6.4 1.8 7.9 6.4 10.8 2.9 1.9 4 3.2 4 5 0 5.4 5.6 10.1 15.5 13 2.8.9 4.1 1.9 4.5 3.5.3 1.4 1.7 2.7 3.8 3.4 2.1.7 3.9 2.3 5 4.6 2.2 4.5 7.3 7.8 13.3 8.6 4.1.6 5.1 1.1 6.8 4 3.2 5.5 9 4.1 13.5-3.1 2.3-3.6 3.4-4.4 6.9-4.9 4.5-.7 11.6-4.1 18.4-8.7 2.3-1.6 4.4-2.9 4.7-2.9.4 0-.6 2.4-2 5.2-10.1 19.7-24.4 57.5-24.4 64.3 0 3.5.6 4.5 6.1 9.8 9.5 9 10.9 8.1 15.2-10.3 3.7-15.8 9.3-36 10.2-36.8.4-.4.5.5.1 2-1 4.3-3.4 33.6-4.2 51-.7 16.1-.3 20.8 2 20.8 1 0 1.4-4.2 1.9-18.7.7-19.6 1.7-32.3 4.3-50.8 2-14.1 2.7-16.1 7.4-21.3 3.8-4.3 4-4.3 7.3-3.1 4 1.4 7.9.6 10.6-2.2l1.9-2 2.1 3c1.7 2.3 2 3.9 1.6 7.8-1.7 16.7-2.6 28.5-4 49.3-.8 12.9-1.7 26.8-2 30.7-.5 6.8-.5 7.3 1.4 7.3 2.7 0 2.7-.4 4.1-25.5 1.3-26.3 3.9-56.5 4.9-58.4.5-.8 2.2 2.9 4.6 10.5 2 6.6 4.6 14.4 5.6 17.4 5.6 16.6 9.5 27.6 10.2 28.7 1.3 2 4.7 1.4 11.7-2 7.5-3.7 8.1-5.1 5.5-13-3.9-12-17-43.5-23.3-56.2-1.1-2.2-1.9-4.2-1.7-4.4.2-.1 2.3 1.1 4.7 2.8 17.1 12.3 19.3 13.3 24.8 11.7 2.2-.6 2.9 0 6 4.5 6 8.9 12 11.3 15.9 6.3 1.5-1.9 2.8-2.4 5.3-2.3 6.7.5 9.7-.2 12.7-2.7 1.7-1.4 3.1-3.4 3.1-4.5 0-1.4.7-1.9 2.8-1.9 2.9 0 8.2-4.4 8.2-6.9 0-.8.7-1 2.3-.5 8.5 2.8 22.8-4.3 24.3-12.2.5-2.7 1.1-3.3 4.3-3.8 2.2-.3 4.8-1.7 6.5-3.5 2.2-2.3 3.9-3 8.7-3.5 5-.6 6.7-1.3 9.9-4.2 2.6-2.4 4.2-4.8 4.6-7.1.5-2.4 1.4-3.8 3.3-4.6 1.4-.6 3.5-1.9 4.7-2.9l2.1-1.9.7 6.3c.5 5.6 2.9 14.7 5.1 20.2.7 1.6.6 1.7-1.4.6-3.4-1.8-6.4-.5-9.4 4.1-3.9 5.9-6.7 14.7-8.3 26.2-1.9 13.8-.6 15.7 10.8 15.7h6.2l-5.7 5.6-5.7 5.6-2-2.4c-2.1-2.5-2.3-2-2 3.7.1 2.3-1.2 4.6-5.1 9.5-7.7 9.6-13.4 18.7-19.5 31.3-5.7 11.9-6.2 13.7-4 13.7.8 0 3.8-4.9 7-11.5 5.8-12.3 14.6-26.4 20.3-33 2-2.2 8.1-8.6 13.6-14.2 8.8-8.9 10.8-10.5 16.1-12.3 3.3-1.1 6.3-2 6.8-2 .4 0-1.5 3-4.3 6.7-8.9 12.1-21.9 31.1-21.9 32.2 0 2.4 2 .8 6.1-5 18.3-25.5 28.2-37.9 30.2-37.9 1.6 0 3.2 1.8 6.1 6.5 2.1 3.6 4.3 6.8 4.8 7.1.6.4 2.3 2.7 3.9 5.2 2.6 4.1 2.9 5.4 2.9 12.9 0 8.1-3.4 28.1-6.5 38.7-1.8 6.1-1.8 6.6-.1 6.6.9 0 2.2-2.6 3.5-6.8 2.9-9.4 7-30.7 7.1-36.6v-4.8l4 3.6c7 6.3 11.6 4.9 22.9-6.9 11.1-11.7 14.1-21.3 8.4-26.7-3.5-3.3-13.8-8.4-18.6-9.3-2-.4-3.7-1.1-3.7-1.5 0-.4 1.8-2 4.1-3.5 8-5.2 21.7-20.6 27.4-30.8l2.3-3.9 1.7 5.8c2.7 9.1 5.6 24.4 5.7 29.4.4 21 2 66.9 2.5 68.8.8 3.2 3.3.9 3.3-3.2.1-1.7.7-5.8 1.5-9.1s1.5-7.9 1.5-10.3c0-2.3.4-4.2.8-4.2 2.3 0 10.2 33.5 10.2 43.1 0 2.1.3 4.4.6 5.3.9 2.3 3.4 1.9 3.4-.5 0-4.2-3.1-23.6-5.2-32.2-2.1-8.6-2.1-9-.4-13.5 15.9-41.8 20.7-102.7 12.5-158.2-2.5-16.4-3.8-22.2-9.4-41.5-2.3-8.3-5.9-22-7.9-30.5s-4.9-20.7-6.6-27c-6.7-25.4-14.4-54.1-17.7-65.5-1.8-6.6-7.5-32.5-12.4-57.5-5-25-10.1-50.5-11.4-56.5-2.3-10.6-6.1-37.9-8.5-60.9-.6-6.1-1.5-13.2-2-15.8-.7-3.3-.6-6.3.2-9.2.8-3.2.9-5.9 0-10.7-3.6-20.7-4.4-24.8-5.8-29-2.1-6.4-4.4-8.3-9.3-7.6-3.1.4-4.1.1-4.6-1.2-.4-.9-1.8-4.8-3.2-8.6-3.6-9.9-14.1-30.4-21.1-41-6.1-9.2-20.6-24.8-34.6-37.2-6.9-6.1-8-7.5-8-10.4l-.1-3.4-9-.3-9-.2 5.5 4.7c18.9 16.2 33 32.5 47.6 54.8 6.8 10.5 16.4 30.4 19.8 41.3 4.2 13.3 3.2 16-2.5 6.9-7.5-11.7-13.6-16.1-16.9-12.2-1.7 2.1-.8 12.8 2.5 27.5 4.6 20.8 9 31 13.4 31 2.3 0 6.2-5.9 8.8-13.3l2-5.8 2.6 3.4c1.4 1.9 2.9 4.7 3.3 6.3.4 1.6 2.3 6.7 4.1 11.4 4 9.9 9.6 27.8 12.4 40 1.1 4.7 2.9 11.4 3.9 15 1.9 6.9 3.3 13.6 16.1 78 4.4 22.3 9.6 46.6 11.5 54 2 7.4 5.5 20.9 7.9 30 4.1 15.7 9.1 34 13.5 49.5 7.4 26.2 12.1 61.8 10 76.4-.6 4-1.1 9.2-1.2 11.5 0 2.2-.4 4.3-.8 4.6-.4.3-1.8 4.1-3.3 8.5-3.1 9.8-12.2 31.5-13.8 32.9-.9.8-1 .6-.4-.9 2.1-5.4 7.7-24.8 8.9-31 3.2-15.9 4-30.5 2.7-46.1-1.8-21.9-5-46.9-6.6-51.4-.8-2.2-2.3-11.1-3.5-19.7-1.1-8.6-2.3-15.9-2.5-16.2-1.5-1.4-1.6 2.5-.6 16.6 1.2 17.8 1.8 45 .9 45.8-.3.3-.8-2.7-1.2-6.7-3.1-31.6-15.1-78.9-25.2-99-5.8-11.5-16.6-27-17.9-25.7-.3.4 1.2 3.5 3.4 7 8.8 14.1 16.6 30.5 19.9 41.9.5 1.9 2.2 7.5 3.6 12.4 6.5 22.1 11.4 49.8 13.7 77.5.7 7.8 1.6 14.1 2.1 14.1 4 0-4.6 49.8-13.7 79-5.6 18.1-17 44-19.3 44-.4 0-.5-5.3-.4-11.7.2-6.5-.1-17.2-.7-23.8-.6-6.6-1.3-14.9-1.6-18.5-.5-5.6-1.4-17.3-4.1-48-.3-3.6-.9-7.6-1.4-9-.8-2.3-1.5-5.8-2.6-13.5-.2-1.7-.8-5.5-1.4-8.5-.5-3-1.6-11.4-2.4-18.5-2-16.5-4.2-29.6-6.8-41-2.7-12.1-5.8-22.5-6.7-22.5-.8 0 .5 10.6 1.4 12 .6 1 4.3 19.5 5.9 30 7.1 45.6 6.9 133.5-.3 165.5-1 4.4-2.4 11-3.1 14.6-1.6 8.9-2.5 10.1-5 6.9-4.1-5-9.8-13.7-13.7-21-2.2-4.1-5-9.1-6.2-11-1.1-1.9-2.4-4.2-2.7-5-.3-.8-2.1-4.7-3.9-8.5-1.8-3.9-4.1-9.7-5-13-.9-3.3-2.9-8.4-4.3-11.3-2.1-4.5-2.3-5.5-1.1-6.3 1.2-.8 1.1-1.1-.3-2-1.6-.9-1.8-3-1.8-21.5 0-20.4 3.5-120.2 4.5-125.9.7-4.9.7-14.7-.5-59.5-1.2-46-2.5-64.4-6.4-90-6.7-43.3-13-68.9-29.3-118.5-12.9-39.2-23.4-63.8-34.7-81.4-2.4-3.6-6.4-10-8.9-14.2-2.6-4.2-5.5-8.3-6.4-9-1-.8 0 1.1 2.2 4.1 3.9 5.5 25.5 47.3 25.5 49.3 0 .6-2.1-2.2-4.6-6.3-9.9-15.9-23.4-32.8-23.4-29.2 0 .4 2.1 3.4 4.6 6.7 11.6 15.3 23.8 36.3 32.4 56 10.2 23.5 15.2 36.5 19 49.6 1.7 5.7 4.2 14 5.5 18.4 6.3 20.1 18.5 86.4 18.5 99.9v4.9l-9.4-18.5c-5.2-10.2-11.7-22.2-14.5-26.7-2.8-4.4-5.1-8.3-5.1-8.7 0-.6-8.3-11.5-13-17.1-2.5-2.9-26-36.3-26-36.9 0-.4 2.1-.3 4.8.1 5.5.8 13.6 4.6 17.3 8.1 1.4 1.3 3.2 2.4 4 2.4.9 0 2.1 1.1 2.7 2.5 1.2 2.5 2.6 3.2 3.6 1.7.3-.5-.6-3.8-1.9-7.3-1.3-3.5-3.5-9.4-4.9-13-7.6-20.3-27.2-61.5-31.2-65.8-3-3.3-2.6.4.8 6.7 10.4 19.5 14.8 28.5 17.2 35.2 1.4 4.1 3.1 8.4 3.6 9.5.5 1.1 2.7 6.7 4.8 12.5 2.2 5.8 4.3 11.4 4.8 12.4.6 1.7.3 1.6-2.7-.6-3.9-2.9-8.4-4.6-18.8-6.7l-7.4-1.6-5.4-9.5c-9-16-24.6-47-27.8-55.5-2.6-6.7-3.3-10.5-4.4-23.5-1.1-14.4-5.7-42.3-8.2-49.8-.6-1.7-1.5-3.2-2-3.2-.6 0-.8.3-.6.7 1.2 2 6.8 36.3 7.8 48.3 1.2 13.3 1.7 54.7 1 78.8-.3 12.1-.4 12.3-2.8 13.3-1.4.5-5.3.9-8.7.9-3.3-.1-7.2 0-8.5.2-2.5.3-2.5.1-3.7-10.7-.7-6.1-2.2-16-3.3-22-1.2-6.1-2.8-15.4-3.8-20.8-.9-5.4-2.1-9.7-2.7-9.7-.7 0-2.8 7.5-4.9 17.2-4 19-5.7 30.2-5.7 38.2 0 6.2-.5 7-3.4 5.1-3.1-2.2-6-2-5.3.5.6 2.4-.5 2.6-2.3.5-1.4-1.6-3-2-3-.6 0 1.2 6.7 8.1 7.9 8.1.6 0 1.1-.9 1.1-2v-2l2 2c1.6 1.6 2 3.3 2 8.7 0 3.8.5 12 1 18.3.5 6.3.7 11.6.5 11.8-.2.2-2-2.1-4-5.2-6.3-9.9-9.1-9.7-11.4.9-.8 3.7-1.7 5.5-2.8 5.5-.8 0-6.3-3.4-12.1-7.6-16.9-12.1-17.7-12.1-16.1-.6 1.5 10.9 1.1 11.3-5 4.1-2.9-3.5-9.4-11-14.5-16.7l-9.1-10.3-2.1 2.4c-1.9 2.3-8.4 17.5-8.4 19.8 0 .5-.4.9-.8.9s-2.2-7.5-3.9-16.8c-3.1-17-3.1-19.2.6-19.2 4.7 0 16.4-7.9 18.2-12.2 1.6-4 .6-4.4-3.3-1.5-4.9 3.6-13.4 7.7-16.2 7.7-2.2 0-2.4-.4-2.8-5.8-.3-3.1.1-11 .9-17.6.7-6.5 1.2-12.1.9-12.3-1.8-1.8-4.6 5.4-4.6 11.6 0 1.9-1.2 5.4-2.8 8-3.2 5.2-8.2 15.7-8.2 17.1 0 .9-1.3 1.4-6.9 2.5l-3.4.7.7-10.8c1.3-20.6 4.4-36.9 9.7-51.4 3.9-10.6 11-26.2 13.3-29 2.9-3.4 5.6-8.9 4.7-9.4-2.1-1.4-16.5 25.6-23.5 44.1-1.5 4-3.1 7.5-3.6 7.8-1.8 1.1-11.1 17.8-20.8 37l-10 20-5.7 2.4c-3 1.3-5.8 2.2-6 1.9-.9-.9 5.4-28.4 8.5-37.3 7.7-21.8 18.8-45.1 28.6-60 3-4.5-.3-2.6-3.8 2.2-11.8 16.5-29.7 58.5-34.8 81.7-1.2 5.3-3.1 10.7-4.9 13.6-6.2 10-16 33.4-20.1 48-5.7 20.2-8.5 28.6-9.7 30-1.1 1.2-1.3 1-1.3-1.2 0-1.5-.5-3-1.1-3.4-1.1-.7-1 2.7.3 6.6.3.8.3 1.2.1.7-.3-.4-.9-.5-1.4-.1-.5.3-.9.4-.9.2-1.2-11.9-1.2-13.8.4-13.8 1 0 1.4-.5 1.1-1-.4-.6-1.1-.8-1.6-.5-.5.4-.9.1-.9-.4 0-.6.5-1.1 1-1.1.6 0 1-.5 1-1.1 0-.6-.7-.9-1.5-.5-.9.3-1.5 0-1.5-.9 0-.8-.8-1.5-1.8-1.5-1.5 0-2.1 1.4-3.1 6.7-1.9 10.1-2.1 10.6-3.5 9.4-.7-.6-1.5-.8-1.8-.5-1.5 1.4-6.9-27.6-8.8-47.2-2-20.1 1.1-49.8 7.4-69.6 1.4-4.3 1.3-5.8-.5-5.8-2.2 0-9.3 26.1-10.3 37.6-.6 6.8-1 7.7-7.1 16.7-3.6 5.2-6.5 10.1-6.5 10.7 0 1.1-.5 2.3-4.4 11.1-.9 2-3.1 9-4.9 15.4-1.9 6.5-3.7 11.3-4.1 10.7-1.4-2.4-.9-39.6.8-51.7 3.2-22.8 9.7-47 17.6-65.7 11.7-27.7 41.6-63.9 68-82.4 11.8-8.2 21-13.9 31.5-19.3 5.3-2.8 5.7-3.1 3-3.1-1.6.1-6.8 2-11.5 4.4zM553.4 52c6.2 8.8 12 19.5 18.1 33.5 6.1 13.9 7.3 18.7 5.5 22-.7 1.4-1.6 2.5-2 2.5-.4 0-1.9-3.7-3.4-8.3-3.6-10.7-15.1-34.5-21.2-43.8-2.7-4.1-7-11.7-9.5-16.9l-4.7-9.5 6 6.5c3.2 3.6 8.3 9.9 11.2 14zm-98.8 92.1c3 5.4 5.4 10 5.4 10.3 0 .3-7.5.6-16.6.6h-16.7l.7-4.5c.3-2.5.9-16 1.2-29.9l.7-25.4 9.9 19.7c5.5 10.8 12.4 23.9 15.4 29.2zm101.6-44.4c2.3 2.1 2.3 3.5 0 5-1.4.8-1.8 2-1.4 4.2.2 1.7 0 3.1-.5 3.1-1.1 0-3.5-11.9-2.7-13.1.8-1.4 2.6-1.1 4.6.8zm4.3 7.3c-.3.4-.2 1 .3 1.2 1.3.5 5.4 6.8 4.4 6.8-.5 0-1.5-1.1-2.2-2.5-.7-1.3-1.6-2.4-1.9-2.3-2.1.2-3.1-.4-3.1-2 0-1 .3-2.2.6-2.5.9-.9 2.6.2 1.9 1.3zM393 110.4c0 1.9.7 6.9 1.4 11.2 2.3 12.4 4.8 33.5 4.1 35.2-.4 1.2-1.7 1.4-6.2.9-6-.6-8.9-2.7-7.8-5.7.4-.8 1.1-5.3 1.6-10 2.5-23.7 6.9-43.6 6.9-31.6zm162.6 4.4c-2 2-2.2.1-.3-2.8 1-1.8 1.2-1.8 1.5-.4.2.9-.3 2.4-1.2 3.2zm6.4-.8c0 .5-.7 1-1.5 1s-1.5-.5-1.5-1c0-.6.7-1 1.5-1s1.5.4 1.5 1zm-299 10.3c-.7 4.5-1.2 13.2-1.1 19.4.2 12.7 1.3 11.4-10.9 13.4-4.1.7-8.3 1.6-9.2 2.1-1.1.5-1.8.5-1.8-.1 0-1.4 15-30.8 19.8-38.8 2-3.4 3.9-5.8 4.1-5.2.2.6-.2 4.7-.9 9.2zm293.7-7c0 .7.3 2.4.6 3.9.4 1.5.3 2.9-.2 3.2-.9.6-2.3-6.2-1.5-7.6.7-1.1 1.1-1 1.1.5zm1.7 11.2c.3.8.1 1.5-.4 1.5-.6 0-1-.7-1-1.5s.2-1.5.4-1.5.6.7 1 1.5zm11.3 2.7c-.3.8-.6.5-.6-.6-.1-1.1.2-1.7.5-1.3.3.3.4 1.2.1 1.9zm-8.6 8.5c-1 1.7-1 1.6-1.1-.3 0-2.3 1.3-4.1 1.8-2.5.2.6-.1 1.8-.7 2.8zm-275.8 4c.3 3.7.1 6.2-.7 6.9-1.6 1.7-7.6 2.8-7.6 1.5 0-1.6 6.3-14.1 7.1-14.1.4 0 .9 2.6 1.2 5.7zm283.7-3.8c0 .6-.4 1.3-1 1.6-.5.3-1-.1-1-.9 0-.9.5-1.6 1-1.6.6 0 1 .4 1 .9zm-5.5 3.1c.3.5.1 1-.4 1-.6 0-1.1-.5-1.1-1 0-.6.2-1 .4-1 .3 0 .8.4 1.1 1zm2.7 4c-1.7 3-3.2 3.9-3.2 2 0-.6.4-1 .9-1s1.3-.9 1.6-2c.3-1.1 1-2 1.5-2s.1 1.3-.8 3zm28.8-1c0 .5-.4 1-1 1-.5 0-1-.5-1-1 0-.6.5-1 1-1 .6 0 1 .4 1 1zm-4.9 2.9c2.2 1.7 4.5 3.1 5.1 3.3 1.1.4 3.7 19.5 3.7 27.3 0 4.8-.1 4.5-3.5-6.5-2-6.3-4.5-13.5-5.6-16-4-8.8-4.8-11-4.3-11 .3 0 2.3 1.3 4.6 2.9zM286 160.2c0 1.8.9 7.5 2 12.7 2.4 11.3 2.4 12.1.5 12.1-2 0-1.9 1.7.3 2.9.9.5 2.6 3.3 3.7 6.2 2.4 6.1 4.2 7.2 5 3.2 1.9-8.9 7.8-24.4 9.3-24.2.4 0 7.3 7.9 15.5 17.5 12.7 15 17.7 19.7 17.7 16.6 0-.7-1.6-11.2-2.5-17-.4-1.9-.2-3.2.5-3.2.5 0 5 2.8 9.8 6.3 12.2 8.8 13.8 9.7 16.6 9.7 2 0 2.7-.7 3.5-3.8.6-2 1.1-4.7 1.1-5.9 0-3.7 1.8-3.5 4.4.4 1.4 2.1 4.1 5.6 6 7.8l3.5 4 1.1-3c.8-2 .9-8.1.4-19.5-.4-9.1-.6-17-.6-17.5.1-.6 1.8-1.3 3.9-1.8 2.1-.4 5.5-1.4 7.6-2.4 2-.9 4-1.4 4.3-1.1.2.3.6 10.1.7 21.7.1 11.6.6 21.1 1 21.1s3.5-1.4 6.8-3.1c3.4-1.7 6.2-2.9 6.4-2.7.1.2.9 3 1.7 6.3.8 3.3 1.7 5.3 2 4.5.3-.8 1.3-4.1 2.3-7.3l1.8-5.7 5.6-.2c3.1-.1 7.3-.3 9.3-.4 6.9-.3 13.5 2.8 20.5 9.7 11.4 11.4 16 25.4 13 40-.8 4.1-1.8 8.2-2.2 9.1-.4 1.1-.3 1.8.4 1.8 1.3 0 6.6-11.2 8.2-17.4 4.6-18.4-8.4-41-29-50.2-5.2-2.4-5.3-2.5-4.8-5.9.8-4.6-1.9-4.8-3.1-.3l-.8 3.3h-8c-4.9 0-7.8-.4-7.7-1 .1-.6.7-6.6 1.4-13.3l1.3-12.2 3.3-.6c1.9-.4 9.3-.5 16.7-.2 15.7.4 16.3.7 23.2 10.5 2.6 3.8 6.7 9.1 9.1 12 2.4 2.9 6 7.6 8.1 10.6 2 3 6.3 9.1 9.5 13.5 3.1 4.5 5.7 8.4 5.7 8.7 0 .3 1.6 2.7 3.5 5.3 3.9 5.5 8.5 14.9 8.5 17.5 0 1.4-.5 1.6-2.5 1.1-3.1-.8-3.2.5-.5 6.5 2.5 5.4 2.5 5.4-.1 4.6-1.8-.6-2-.4-1.4 1.7.4 1.2 1.4 3.5 2.1 5 1.8 3.4 1.8 3.9-.1 3.2-1.9-.8-1.9 1.3-.1 4.6 1.2 2.1 1.2 2.6-.2 3.6s-1.4 1.3.1 3.5c2.1 2.9 2.1 3.9.1 3.9-1.2 0-1.5.6-1 2.2.4 1.3 1.2 5.6 1.8 9.5.6 4 1.6 7.3 2.2 7.3.6 0 2.2-1.8 3.6-3.9 3.2-5.3 11.3-11.2 16.1-11.8l3.9-.6.1 5.4c.1 3 .1 13-.1 22.4l-.2 17-3.5 3.7c-2 2-6.2 5.1-9.4 6.8-6.6 3.5-8 5-4.7 5 3.3-.1 9.9-3.3 14-6.9 2-1.7 3.8-3.1 4.2-3.1.3 0 .6 2.8.6 6.3v6.3l-10.7 10.6c-6 5.8-11.7 11-12.8 11.6-2.8 1.4-7 1.6-13.7.7-7.5-1-9.9-.3-12.2 3.6-5.7 9.7-24.2 26.7-38.8 35.7-5 3.1-34.9 18.1-46.8 23.5-20.1 9.1-45.3 17.7-51.8 17.7-2.8 0-16.5-5.7-32.7-13.5-6-2.9-12.6-6-14.5-6.9-1.9-.8-4.6-2.1-6-2.9-1.4-.8-7.7-4.1-14-7.2-22.2-11-34.7-20.8-42.9-33.5-7-10.9-12.7-31.9-15.6-57.5-.8-7.7-1.8-15.1-2-16.5-.3-1.4-1.8-11.5-3.4-22.5-1.7-11-4.8-28.8-7-39.6-3-14.7-4.1-23.4-4.7-34.2-.7-15.5-.4-17.5 5.3-28.7l2.3-4.5-.6 8.5c-.8 13.2-.8 17.8 0 27.2 1.2 13.3 2.4 12.1 7.6-7.2 5-18.9 6-21.7 10-30.4 3.8-8.3 3.8-8.4 9.5-10.5 3.2-1.2 8.4-2.4 11.6-2.8l5.9-.6.2 18.2c.1 9.9.2 19 .2 20.1.1 3.1-1.8 2.5-2.8-.9-1.3-4.6-3-3.8-2.3 1.1.5 4 .4 4.3-6.8 11.4l-7.3 7.3-2.5-3.2c-2.2-2.6-2.6-2.9-2.7-1.3 0 1.1 1 3 2.2 4.3 2.1 2.3 2.1 2.4.5 7.6-3.6 11.6-3 19.4 2.5 30.5 3.2 6.5 5.1 6.8 2.7.5-2-5.2-2.2-16.6-.5-22.5 2.4-8.2 9.2-17.5 16.5-22.6 6-4 6.5-4.2 14-4.2 9.2 0 16.3 3 21.1 8.8 1.6 2 3.2 3.3 3.5 3 1.1-1.1-2-10-4.7-13.3-4.6-5.5-16.8-8.3-27-6.2l-3.8.8.6-3.3c2.3-13.6 3.9-20.4 6.5-28 3.3-9.3 3.4-9.4 11.2-9.7 3.5-.1 3.7 0 3.7 3.1zm137.4-1.3c.8 1.2-1.3 16.1-2.6 18.4-1.4 2.6-4.1 1.7-5-1.8-3.6-14.9-3.7-15.5-1.9-16.5 2.1-1.2 8.8-1.3 9.5-.1zm-153.4.7c0 1.2-5.3 15.4-5.7 15.4-.3 0-.3-3 .1-6.8.3-3.7.6-7.3.6-8 0-1.2 5-1.8 5-.6zm118 .4c1.2.8 1.1 1-.7 1-1.3 0-2.3-.5-2.3-1 0-1.3 1.1-1.3 3 0zm21.2 4.1c-.2 2.4-.9 6.6-1.7 9.4-.7 2.7-1.6 6.9-2 9.3-1.2 7.7-2.3 3.4-2.4-9.4 0-12 .1-12.5 2.2-13.4 3.5-1.4 4.2-.6 3.9 4.1zm-176.7 3.6c-4.3 10.2-8.8 24.1-10.7 33.4l-2.3 11.4-.3-7c-.4-7.3 1.5-30.6 2.7-33.9.4-1 2.7-2.7 5.2-3.7 5.6-2.3 6.3-2.3 5.4-.2zm178.5 9.8c0 1.4-.4 2.5-.9 2.5-.4 0-.6-1.1-.3-2.5.2-1.4.6-2.5.8-2.5.2 0 .4 1.1.4 2.5zm9 8.2c0 7.1-1.6 8.6-2.4 2.4-.7-5.2-.3-7.1 1.5-7.1.5 0 .9 2.1.9 4.7zm-6.2-.5c.3 1.5-4.1 4.8-6.4 4.8-1 0 .6-5.4 1.9-6.2 1.8-1.2 4.1-.5 4.5 1.4zM205 212.8c0 2.6 1.2 10.3 2.6 17.2 3.1 15 3.1 15.1 4.3 22 .5 3 1.4 7.3 1.9 9.5.6 2.2 2.3 12.1 3.7 22 5 34.9 5 35.4 1.6 35.6-.9 0-1.1.3-.5.5 1.8.8-1.1 8-3 7.6-1-.2-1.6.4-1.6 1.6 0 2-1.8 4.2-3.4 4.2-.6 0-.3-.5.7-1.1.9-.5 1.7-1.7 1.7-2.6 0-1.2-.3-1.3-1.3-.4-.8.6-1.7.8-2 .4-.8-.7-1 .9-1.6 12.9-.1 1-.8 1.8-1.6 1.8-1.1 0-1.5 1.1-1.5 3.9 0 3.1-.4 4.1-2 4.6-1.4.4-2 1.5-2 3.4 0 1.5-.9 3.6-2 4.6-2.4 2.1-2.6 4-.5 3.1.9-.3 1.5 0 1.5.9 0 .8-.4 1.5-.9 1.5-1.1 0-5.2 9.8-4.2 10.2.5.2 1.1 6.1 1.5 13.2.6 11.7.6 12.8-.8 11.6-1.2-.9-1.6-.9-1.6-.1 0 .7-.5.9-1 .6-.5-.3-1 .1-1 1s.5 1.3 1 1c.6-.4 1.7-.2 2.4.4 1.4 1.2 2.8.2 3.9-2.9.4-1 .6-.7.6.8.1 1.2-.3 3-.8 4-.5.9-1.2 2.5-1.5 3.4-.6 1.9-2.6 2.5-2.6.8 0-.6.5-1 1-1 .6 0 1-.6 1-1.3 0-.7-.9-1.3-2-1.3-1.5 0-1.9.5-1.5 2.1.4 1.7.3 1.7-.6-.3-1.5-2.7-2.6-2.8-3.4-.2-.3 1.1-1.1 2-1.6 2s-.9 3-.9 6.7c0 7.2-1.9 12.9-2.1 6.3 0-1.9-.4-4.4-.9-5.5-.6-1.5-.9-.8-.9 2.8-.1 2.7-.4 4.6-.8 4.4-.5-.3-.7 1.8-.5 4.7.2 3.4-.4 7.3-1.7 11.4-1.2 3.4-2.1 6.8-2.1 7.5 0 .8-.6 1.9-1.3 2.5-.8.7-1.3 3.5-1.2 7.6 0 3.5-.4 6.2-.9 5.8-.5-.3-.7 1.3-.3 3.6.3 2.3.2 4.2-.3 4.2-1.2 0-2.2-4.9-1.6-8.4.5-2.7.5-2.8-.3-.6-.5 1.4-2.3 10.4-4.1 20-1.7 9.6-3.8 19.8-4.6 22.6-.8 2.8-1.4 5.7-1.4 6.4 0 1.8-8 23.3-9.1 24.5-.5.5-.9 1.7-.9 2.6 0 3-11.1 23.3-15.6 28.4-1.4 1.6-4.1 5.3-6 8.2-1.9 2.8-5.5 7-8 9.3-5.3 4.8-6.1 4.6-10.1-3.3-6.1-12.2-14.3-44.7-14.3-57 0-2.6-.4-4.7-.8-4.7-.9 0-.7-8.8.3-18.3 2.2-20.8 13.4-67.5 19.8-82.8 5.3-12.5 14.9-32.5 18.6-38.8 3.7-6.2 4.3-8.1 2.8-8.1-1.7 0-13.1 21.1-20.5 38-8.3 18.8-17.7 45.1-21.6 60.5-8.7 33.7-10.8 48.7-11.2 80.9-.3 13.7-.7 25.2-1 25.5-.3.3-1.4-.5-2.4-1.9-2.5-3.3-11.2-18.7-12.7-22.5-7.8-20-9.3-30.4-6.8-47.3.9-5.9 2.2-13 2.9-15.7.8-2.8 1.7-6.7 2-8.8 1.3-7.5 10.8-34.3 17.9-50.7 11.4-26.3 23.7-51.6 49.8-103 4.1-8 13.2-27.2 20.3-42.7 7.1-15.5 13.3-28 13.8-27.7.5.4.6 3.4.3 7.3-.6 5.7-.5 6.4.7 5.1.8-.8 2.5-5.9 3.7-11.3 1.3-5.3 2.6-9.7 2.9-9.7.4 0 1.5 5.1 2.5 11.3 3.2 20.3 4 23.7 5.3 23.7.7 0 1.5-1.9 1.9-4.3 1.3-8.9 1.7-10 2.6-8.6.8 1.2 1.1 1.2 1.9-.1.9-1.3 1-1.3 1 .1 0 .8-.5 2-1.1 2.6-.7.7-.7 1.3 0 1.7 1.6 1 2.4-5.9 1.8-15.4-.4-4.8-.9-9.4-1.2-10.2-.4-1.1.2-1.3 2.9-1 3.3.4 3.5.2 3.4-2.6-.1-3.5.8-5.2 2.8-5.2.8 0 1.4-.9 1.4-2 0-2.5-1.5-2.6-2.4-.3-.6 1.5-.8 1.5-1.6.3-.8-1.3-1-1.2-1 .2 0 1.1-.7 1.6-2 1.5-1.4-.1-1.9-.6-1.5-1.7.4-.8.9-2.7 1.2-4.3.3-1.5.9-2.7 1.4-2.7.5 0 .9-1.2 1-2.8 0-1.5.3-2.1.6-1.4.2.6.9 1 1.4.6.5-.3.9 0 .9.5 0 .6-.5 1.1-1.1 1.1-.8 0-.8.5.1 1.5 1 1.2 1 1.5-.4 1.5-.9 0-1.6.7-1.6 1.6 0 2.7 2.4.9 3.7-2.7.7-1.9 1.2-5 1.2-6.9v-3.5l-1.3 3c-1 2.5-1.3 2.7-1.9 1.1-.9-2.2 4.1-17.8 5.4-17 .5.3.9 2.6.9 5.2zm314.8 31.9c1 2.1 4 7.8 6.6 12.7 2.6 4.9 4.5 9.1 4.2 9.3-.2.3.5 1.4 1.6 2.5 1.9 1.9 1.9 1.9-3.1 4.5-2.8 1.5-6.9 4.4-9.1 6.5-2.4 2.3-4 3.3-4 2.4 0-.8-.3-2.1-.6-3-.4-1.1-.1-1.6 1-1.6 1.3 0 1.5-1 1.2-5.8-.3-3.1-.8-6.5-1.1-7.4-.5-1.2-.1-2 .9-2.4.9-.3 1.3-1.1.9-1.8-1.8-2.6-3.2-8.1-2.3-8.4 1.4-.5 1.2-4.3-.5-7.2-1.9-3.3-1.8-4 .4-4 1.2 0 2.6 1.4 3.9 3.7zm-347.9 2.6c0 2.1-.1 2.1-.9.2-1.2-2.8-1.2-3.7 0-3 .6.3 1 1.6.9 2.8zm12.1 5.2c0 1.4-.4 2.5-1 2.5-.5 0-1-1.1-1-2.5s.5-2.5 1-2.5c.6 0 1 1.1 1 2.5zm6.8 3c-.4 2.8-.1 4.6.6 4.8.8.3.7 1.1-.3 2.8-1 1.6-1 2.4-.2 2.7 1.8.6 1.3 1.8-.9 1.9-2.3.2-2.3.5-.9-9.2 1.2-8 2.5-10.4 1.7-3zm23.3 80.8c-.8.8-1.1.7-1.1-.4 0-2 1.3-3.4 1.8-1.9.3.7-.1 1.7-.7 2.3zm-1.8.1c.8 1.9-.3 5.7-1.4 5-1.2-.7-1.2-6.4 0-6.4.5 0 1.1.6 1.4 1.4zm-2.3 10.2c0 .8-.4 1.2-1 .9-.5-.3-1-1-1-1.6 0-.5.5-.9 1-.9.6 0 1 .7 1 1.6zm328.5 34.9c-.3 6-.8 13.4-1.2 16.4l-.6 5.5-1.3-5c-1.8-6.9-1.8-9 .1-7.4 1.3 1 1.5.9 1.5-.9 0-1.1-.5-2.1-1.1-2.1-.8 0-.8-.4-.1-1.3 1.2-1.4 2.1-14.8 1-14-.5.2-.8 1.3-.8 2.4 0 1.1-.4 1.7-1 1.4-1.1-.7-1.3-4.5-.4-6.9.3-.9 1-1.3 1.5-1 .5.3.8-1.4.8-3.8-.1-2.4-.4-3.3-.6-2.1-.5 2.8-1.7 2.9-5.1.2l-2.7-2.1-.5 3.4-.5 3.3-1.4-4.3c-1.6-4.7-2.2-3.6 7.9-14.5l3.5-3.8.8 12.8c.4 7 .5 17.7.2 23.8zm-311.1-30.3c.4 1.7.2 2.8-.4 2.8-.5 0-1-1.4-1-3.2 0-3.6.4-3.5 1.4.4zm-22.5 9.5c-.1 3.2-.4 4.7-.6 3.3-.3-1.4-1-2.8-1.7-3.2-.8-.6-.7-.8.2-.8.7 0 1-.5.7-1-.7-1.1 0-4 1-4 .3 0 .4 2.6.4 5.7zm24.1-3.2c0 .8-.4 1.5-.9 1.5s-1.1-.7-1.5-1.5c-.3-.9 0-1.5.9-1.5.8 0 1.5.7 1.5 1.5zm6.2 15.5c1.7 3.6 4.8 8.6 6.9 11.1 2.1 2.6 3.9 5.1 3.9 5.5 0 .5 1.4 2 3 3.3 1.7 1.3 3 2.8 3 3.3s-.7.2-1.5-.6c-.9-.9-2.2-1.9-2.9-2.3-.7-.5-2-1.9-2.9-3.3-.9-1.3-1.7-1.9-1.7-1.2 0 .6-.7 1.2-1.5 1.2s-1.5-.5-1.5-1c0-.6.5-1 1-1 .6 0 1-.5 1-1.2 0-.9-.3-.9-1.2 0-2.1 2.1-3 1.3-2.4-2.1.4-2.1.3-2.6-.2-1.3-.6 1.4-1.1 1.6-1.6.8-.4-.7-1.2-.9-1.8-.6-.7.5-.9.1-.5-.9.8-2.1.3-2.1-1.7-.1-1.5 1.4-1.6 1.2-1.6-2.5 0-4.6.2-4.8 2.5-2.5.9.9 1.9 1.3 2.2 1 .4-.4-.3-1.4-1.6-2.2-1.6-1.2-2.2-2.3-1.8-4.1.2-1.3-.1-3-.8-3.6-.6-.7-1.5-3-1.8-5.2l-.7-4 1.6 3.5c.9 1.9 3 6.4 4.6 10zm271.1-7.3c4.2.3 7.7 1 7.7 1.5 0 .6 1.6.7 4 .3 2.5-.4 4-.3 4 .4 0 1.6-1.8 2.3-2.3.9-.3-.7-.6.6-.6 2.9-.1 2.3.3 4.4.8 4.7.4.3.6-.5.4-1.7-.3-1.4.2-2.9 1.3-3.8 1.6-1.3 1.7-1.2 1 1.4-.4 1.9-.3 2.6.4 2.2.5-.3 1 .3 1 1.4 0 1.1.5 2.3 1 2.6.6.3.9 2.7.9 5.3-.1 2.6-.3 3.8-.6 2.7-1-4.6-1.3-5.1-2.4-3.5-.7 1.2-.8 1.1-.6-.5.1-1.1.6-2.5 1-3.2 1.1-1.8-.9-2.5-2.3-.8-.7.9-2.9 1.5-5.1 1.5-3.2 0-3.9.3-3.9 2 0 1.8-.7 2-6.5 2H499v4c0 3.8-.2 4-3 4s-3-.2-3-4c0-2.9.4-4 1.5-4 .8 0 1.5-.9 1.5-2 0-2.6-1.4-2.5-3.9.1-2.4 2.6-5.6 1.9-4.8-1.1.3-1.1 0-2-.6-2-.7 0-1.3 1.1-1.3 2.5-.1 1.5.3 2.5 1.2 2.5.8 0 1.4.9 1.4 2 0 1.7-.7 2-3.9 2-2.2 0-4.1-.5-4.4-1.3-.3-.6-.3.9-.1 3.5.3 3.1 0 4.8-.7 4.8-.6 0-.9-.6-.6-1.4.3-.7-.1-2.6-.9-4.1-1.8-3.5-1.9-3 1.9-6.8 3.8-4 10.4-11.6 11.8-13.7.8-1.3 1-1.3 2 0 .9 1.3 1 1.2.5-.3-.9-2.9.4-4.9 2.8-4.2 1.1.4 5.6.9 9.9 1.2zm14.7-.8c0 1.2-3.5 2-5 1.1-.9-.6-.8-.9.6-1.3 3.2-.8 4.4-.7 4.4.2zm9.6 4.8c-.3 1-.2 3.5.3 5.5.5 2.1.5 3.6.1 3.3-1.3-.8-3.2-7.4-2.6-9 .8-2.1 2.8-1.9 2.2.2zm2.8 6.3l.6 3.5-1.4-3.5c-1.7-4.2-2-5.8-.7-4.5.5.6 1.2 2.6 1.5 4.5zm2.6 3.5c0 .8-.4 1.5-1 1.5-.5 0-.7-.7-.4-1.5.4-.8.8-1.5 1-1.5.2 0 .4.7.4 1.5zm-3 2.6c0 .5-.4.9-1 .9-.5 0-1-.7-1-1.6 0-.8.5-1.2 1-.9.6.3 1 1 1 1.6zm-311.6 9.5c.4 1 .1 1.4-.6 1.2-1.5-.5-2.3-2.8-1-2.8.5 0 1.3.7 1.6 1.6zm249.6.5c-2.4 2-2.4 2-.2 1.4 2.7-.8 3 1 .3 2.5-1.4.7-2.1.6-2.4-.3-.2-.6-.7-.9-1.1-.5-.4.3-.2 1.7.5 3 1.1 2.1 1.1 2.2-.4.9-1.4-1.1-1.8-1.1-2.3.3-.4 1-1.3 1.4-2.4 1.1-2.1-.7-4.2 1.7-3.4 3.9.5 1.3.1 1.5-2.4 1-2.9-.6-7.2.9-7.2 2.5 0 .4.7.8 1.5.8s1.2-.4.9-.8c-.7-1.2.9-1.7 3-1 1.6.6 1.4.9-1.5 2.3-2 1-3.6 1.3-4 .7-.3-.5-1.3-.7-2.1-.4-.9.4-1.9.2-2.2-.4-.6-.9.4-1.7 8.3-5.8 3.5-1.8 4-2.2 12.4-9.3 2.7-2.2 5.4-4 6-4 .7 0 .1 1-1.3 2.1zM246.1 394c1.2 1.4 1.7 1.8 1.3 1-.7-1.3-.5-1.3.9-.1 2.2 1.8 2.1 2.1-.5 2.1-1.3 0-3.8-1.3-5.6-2.8l-3.4-2.8 2.7.1c1.5 0 3.4 1 4.6 2.5zm283.8 5c.1 1.3 0 1.3-.9 0-.5-.8-.9-2.4-.9-3.5v-2l.9 2c.5 1.1.9 2.7.9 3.5zm-56.5-.4c.4 1 .1 1.4-.6 1.2-1.5-.5-2.3-2.8-1-2.8.5 0 1.3.7 1.6 1.6zm-221.4.6c0 1.1-1.2 1-3-.2-1.2-.7-1-.9.8-.7 1.2 0 2.2.5 2.2.9zm7.6 3.1c1.7-.6 5.6 2.5 4.8 3.9-.3.5-1.3 0-2.2-1.3l-1.5-2.2-1.3 2.9c-1.2 2.9-1.2 2.9-1.3.4-.1-2.1-.3-2.2-1.2-1-.9 1.2-1 1.2-.5-.3.3-1 .7-2.6.7-3.5.1-1.6.2-1.6.6 0 .2 1 1 1.5 1.9 1.1zm220.1.9c-.3.7-.5.2-.5-1.2s.2-1.9.5-1.3c.2.7.2 1.9 0 2.5zm-229 0c-.3.8-.6.5-.6-.6-.1-1.1.2-1.7.5-1.3.3.3.4 1.2.1 1.9zm-45.7 2.5c-1.1 1.7-1.1 1.7-.6 0 .3-1 .6-2.4.7-3 0-.9.2-.9.5 0 .3.7 0 2-.6 3zm268.1-.4c-.8.8-1.1.7-1.1-.4 0-2 1.3-3.4 1.8-1.9.3.7-.1 1.7-.7 2.3zm57.9.2c0 1.9-.4 3.5-.8 3.5s-.6-1.6-.4-3.5c.2-1.9.6-3.5.8-3.5.2 0 .4 1.6.4 3.5zm-67-.5c0 1.1-.4 2-.9 2s-.7-.9-.4-2c.3-1.1.7-2 .9-2 .2 0 .4.9.4 2zm-191.5 3.9c.3.6 2.6 2 5 3.2 2.5 1.2 4.3 2.5 4 2.7-.2.3-2.2.6-4.4.7-2.9.2-4.2-.2-4.6-1.4-.3-.8-.1-1.7.4-1.9.6-.2.8-.8.5-1.3-.3-.6-1.1-.5-2 .2-1.2 1-1.8.9-3.2-.6-.9-1-1.1-1.5-.4-1.1.6.4 1.2.2 1.2-.3 0-1.4 2.7-1.4 3.5-.2zm201.2 2.3c-.3.7-.5.2-.5-1.2s.2-1.9.5-1.3c.2.7.2 1.9 0 2.5zm-28.2 0c1.4.6 2.5 1.6 2.5 2.2 0 .6-.5.5-1.2-.2-1.5-1.5-6.8-1.6-6.8 0 0 .6-.3.8-.6.5-.8-.7 1.4-3.7 2.7-3.7.4 0 2 .5 3.4 1.2zm-242.8 4c-.3.8-.6.5-.6-.6-.1-1.1.2-1.7.5-1.3.3.3.4 1.2.1 1.9zm238.3.2c0 .3-.4.8-1 1.1-.5.3-1 .1-1-.4 0-.6.5-1.1 1-1.1.6 0 1 .2 1 .4zm-157.3 1.2c-.3.3-1.2.4-1.9.1-.8-.3-.5-.6.6-.6 1.1-.1 1.7.2 1.3.5zm-1.7 1.8c0 .3-.4.8-1 1.1-.5.3-1 .1-1-.4 0-.6.5-1.1 1-1.1.6 0 1 .2 1 .4zm7 .6c0 .5 1.1 1 2.3 1 1.3 0 2.7.3 3.1.7.4.5 1.1.8 1.4.8.4 0 1.8.8 3.2 1.8 2.4 1.7 2.4 1.7.2 1.7-1.2 0-2.2-.5-2.2-1.1 0-.7-1-.9-2.5-.5-1.9.5-2.3.3-1.9-.9.5-1.1-.1-1.5-2.5-1.5-2.1 0-3.1-.5-3.1-1.5 0-.8.5-1.5 1-1.5.6 0 1 .4 1 1zm145.2 12.2c.4 10.4 1 13.6 3.5 20.5 3.7 10.1 7 15 14.9 22.1 8.8 7.8 16.6 10.9 36.6 14.3l6.8 1.1-1.9 2.7c-1.1 1.4-4.4 5-7.4 8-4.8 4.7-6.6 5.7-13.9 7.8-10 3-18.9 5.3-32.3 8.3-5.5 1.2-15.6 3.5-22.4 5.1-6.8 1.6-13 2.9-13.9 2.9-3 0-9.7 4-15.2 9-3 2.7-7 6-8.7 7.2-2.8 2-4.4 4.8-2.8 4.8 1.9 0 8.9-4.6 14.4-9.4 3.5-3.1 7.1-5.8 8-6 2-.6 30.6-7.1 42.1-9.6 8.2-1.8 19.4-4.6 27.3-7 2.2-.6 4-1 4.2-.8.8.8-16.3 14.6-26.5 21.3-15.4 10.1-16.6 10.8-23.5 14.4-11.1 5.7-22 10.3-37 15.4-10.2 3.4-15.4 6.1-17.3 8.8-1.1 1.6-2.6 1.9-10.1 1.9-8.5 0-8.8-.1-10.9-2.9-1.7-2.3-4.2-3.6-11.6-6-9.7-3-18-6.8-25.1-11.3-8.3-5.2-26.4-22.7-29.2-28.2-.8-1.7-3.1-5.2-4.9-7.7-1.9-2.6-3.4-4.9-3.4-5.1 0-.2 6.6 1.8 14.8 4.4 8.1 2.6 18.3 5.5 22.7 6.4 9.4 1.8 14.2 4 14.9 6.8.7 2.4 10.1 12.6 11.6 12.6 2.2 0 .8-3.8-2.4-6.9-1.9-1.9-4-4.5-4.6-6-2.3-5.1-7.5-8.3-16.8-10.3-15.8-3.3-39.5-11.1-42.4-14-2-2-2.4-7.8-.8-10.8 1.6-3 9.3-7.8 14.6-9.1 14.3-3.5 37-11.7 40.5-14.6 2.6-2.2 2.9-1.6 2.2 4.7-.5 4.9-.3 6 .9 6 2.7 0 6.8-18.7 6.8-31v-8.1l3.8.8c7.5 1.6 20.3.7 28.2-2 8.3-2.8 27.8-10.4 35.3-13.7 2.7-1.2 9-3.2 14-4.5 5.1-1.3 10.3-2.8 11.7-3.4 4.7-1.9 4.7-1.7 5.2 11.1zM282 422c0 .5-.2 1-.4 1-.3 0-.8-.5-1.1-1-.3-.6-.1-1 .4-1 .6 0 1.1.4 1.1 1zm253 1.1c0 .5-.4.9-1 .9-.5 0-1-.7-1-1.6 0-.8.5-1.2 1-.9.6.3 1 1 1 1.6zm-341.9 2c-.9 2.2-1 2.2-1 .3-.1-1.1.2-2.4.6-2.7 1.2-1.2 1.4 0 .4 2.4zm12.4-2.1c.3.5.1 1-.4 1-.6 0-1.1-.5-1.1-1 0-.6.2-1 .4-1 .3 0 .8.4 1.1 1zm84.5 0c0 .5-.7.7-1.5.4-.8-.4-1.5-.8-1.5-1 0-.2.7-.4 1.5-.4s1.5.4 1.5 1zm20 6.2c0 .4-.7.8-1.6.8-.8 0-1.2-.5-.9-1 .3-.6-.1-1-.9-1-.9 0-1.6-.4-1.6-1s1-.5 2.5.2c1.4.6 2.5 1.5 2.5 2zm-8-1.2c1.3.8 1.3 1-.2 1-.9 0-2-.5-2.3-1-.8-1.3.5-1.3 2.5 0zm138 1.6c0 .8-.4 1.4-1 1.4-.5 0-1-.9-1-2.1 0-1.1.5-1.7 1-1.4.6.3 1 1.3 1 2.1zm-.3 6.1c-.3 1-.5.4-.5-1.2 0-1.7.2-2.4.5-1.8.2.7.2 2.1 0 3zm95 7.5c-.2 2.4-.4.7-.4-3.7s.2-6.3.4-4.3c.2 2.1.2 5.7 0 8zm-212.4-5.1c-.8 2.9-1.3 2.3-1.3-1.4 0-2.2.3-2.8.9-1.8.5.7.6 2.2.4 3.2zm3.4.1c-.3.8-.6.5-.6-.6-.1-1.1.2-1.7.5-1.3.3.3.4 1.2.1 1.9zm-130 2.5c-.3 1-.5.4-.5-1.2 0-1.7.2-2.4.5-1.8.2.7.2 2.1 0 3zm135.3-2.2c1.1 1.3 1 1.4-.4.9-.9-.3-1.6-1-1.6-1.5 0-1.3.6-1.1 2 .6zm317.4 26.6c1.3 14.6 2 27.7 1.6 30.9l-.6 5.5-.7-6c-.4-3.3-1.3-8.7-1.9-12-1.1-5.6-2.2-47.3-1.2-44.9.2.6 1.5 12.5 2.8 26.5zM200 440c0 .5-.5 1-1.1 1-.5 0-.7-.5-.4-1 .3-.6.8-1 1.1-1 .2 0 .4.4.4 1zm242.9 4.4c-.9.8-1 .7-.5-.7.3-1 .7-2.4.7-3 .1-.7.3-.4.6.7.3 1-.1 2.3-.8 3zm-257.2-.2c-.3.8-.6.5-.6-.6-.1-1.1.2-1.7.5-1.3.3.3.4 1.2.1 1.9zm349 12c-.2 1.8-.4.6-.4-2.7 0-3.3.2-4.8.4-3.3s.2 4.2 0 6zM322 459.4c0 .3-.4.8-1 1.1-.5.3-1 .1-1-.4 0-.6.5-1.1 1-1.1.6 0 1 .2 1 .4zm212.7 8.3c-.3 1-.5.4-.5-1.2 0-1.7.2-2.4.5-1.8.2.7.2 2.1 0 3zM327 466.1c-6.4 4.4-14 7.2-21.5 7.8-5.5.5-9.9 1.6-14 3.5-3.3 1.6-7.9 3.7-10.2 4.8-6.5 3-12.8 8.3-14.8 12.4-1.6 3.5-1.7 4-.1 9.8 2.2 7.7 5 12.6 13.4 22.9 7.9 9.8 9.6 11.5 18.7 19.4 12.7 10.9 26.5 18.3 40.4 21.4 4.8 1.1 8.1 3.3 8.1 5.5 0 2.7 4.2 3.7 13.2 3.1 8.2-.5 8.9-.8 12.1-3.9 2.5-2.6 5.9-4.2 13.8-6.7 11.2-3.6 33.3-13.1 42.6-18.3 5.3-2.9 19-11.9 35-23 13.2-9.1 29.1-24.6 38.9-37.9 3.6-4.9 7-8.7 7.4-8.4 1 .6 17.3 5.5 21.3 6.4l2.9.6V526c0 22.3.5 41.6 1 42.9.6 1.7.4 2.8-.6 4-.8.9-1.8 2.9-2.1 4.4-.5 1.9-1.9 3.4-4.4 4.5-2.7 1.3-3.9 2.7-4.9 5.7-2.4 7.4-7.4 10.5-16.9 10.5-3.6 0-4.4.4-5.5 2.7-1 2.1-2.5 3.1-5.7 3.9-4.6 1.1-5.2 1.7-6.8 6.9-.6 2.1-2.4 3.9-6.1 6.1-6.5 4-9 4.4-13.9 2.8-4.7-1.7-6.3-1.2-6.3 1.9 0 3-2.1 4.9-6.9 6.2-2.5.7-3.7 1.7-3.9 3.2-.5 3.5-4.9 5.7-11.3 5.5-4.3-.1-6.3.3-8.2 1.8-4.3 3.4-7 2.6-11.4-3.2-2.2-2.9-4.2-5.8-4.6-6.4-.4-.7.9-4.4 2.8-8.3 3.9-8 4.7-15 1.9-19-1.9-2.7-12.8-7.8-25-11.8-8.3-2.7-8.9-3.1-13.2-8.7-2.6-3.3-4.8-5.4-5-4.7-.2.7.4 2.5 1.5 3.9 3.8 5.3 4.1 5.1-7.4 4.6-6-.3-12.6-1.1-14.8-1.8-2.2-.8-7.8-1.4-12.4-1.4-4.6-.1-8.6-.4-9-.7-.3-.4.5-1.5 1.9-2.5s2.2-2.2 1.8-2.6c-.4-.4-2.3.7-4.1 2.3-3.2 2.8-4.2 3-13.8 3.7-17.4 1.1-29.3 5.2-34.2 11.7-4.5 6.2-2.8 18 3.8 25.7 4.3 5 4.4 6.9.4 11-3.9 4-5.5 4-7.7.3-1.3-2.4-2.7-3.1-7.2-4-7.8-1.6-11.3-4.1-12.6-9.3-1-4.1-1.2-4.3-4.2-4-2.9.3-3.4-.1-4.7-3.2-1-2.3-2.2-3.6-3.4-3.6-6.3 0-16.1-6.3-16.1-10.4 0-4.3-1.2-6.3-4.5-7.4-3.4-1.3-4.9-3.8-6.1-10.4-.4-2.6-1.7-4.5-4.4-6.7-3.1-2.4-3.9-3.9-4.2-6.8-.2-3.2-.7-3.9-2.8-4.1-3.4-.5-4.8-1.9-5.2-5-.2-1.9-1.1-2.8-3.3-3.4-4.1-1-6.5-4.5-6.5-9.4 0-3-.6-4.6-2.5-6.2-1.4-1.2-2.5-3.1-2.5-4.2 0-1-1.4-3.4-3.1-5.1-3-3.1-3.1-3.3-2.4-9.9.7-6.5.6-6.8-2.4-10-3.7-4.2-2.9-6.2 3.1-7.7 2.4-.6 12.4-3.2 22.2-5.7 9.8-2.5 19.2-4.6 20.8-4.6 4.4 0 44.1-11.5 65.8-19.1 12-4.2 34.3-7.8 30-4.8zm173.3 9c2 .5 3.7 1.4 3.7 2 0 .5-1.2 2.7-2.6 4.9-1.8 2.7-3.2 3.9-4.3 3.6-2.2-.7-9.4-2.2-17.1-3.7-6.4-1.2-10.1-2.5-17-5.7l-3.5-1.7 11.5-.6c13.2-.7 23.9-.3 29.3 1.2zm33.7 3.4c0 1.4-.4 2.5-1 2.5-1.1 0-1.4-3.3-.3-4.3 1.1-1.1 1.3-.8 1.3 1.8zm-361.3.7c-.3.8-.6.5-.6-.6-.1-1.1.2-1.7.5-1.3.3.3.4 1.2.1 1.9zm496.8 17.2c3.7 16.6 5.4 31.7 6.4 55.6 1.8 45.9-1.9 77.7-13.1 112.7-1.1 3.5-2.3 6.3-2.6 6.2-.4 0-2.2-3-3.9-6.7-3.7-7.7-4.2-13.5-2-22.7 3.9-15.6 4.7-51.6 1.7-76.8-1-8.4-.9-9.3 2-19.2 5-17.3 7.2-33.1 7.1-52.5 0-6.7.4-10.9.9-10 .4.8 2 6.9 3.5 13.4zm-573.4-8.8c-.5 2.1-.9 3-1 1.9-.1-2.4 1-6.7 1.5-6.2.3.2 0 2.2-.5 4.3zm499.6-.4c-.3.8-.6.5-.6-.6-.1-1.1.2-1.7.5-1.3.3.3.4 1.2.1 1.9zM215 488.4c0 .3-.4.8-1 1.1-.5.3-1 .1-1-.4 0-.6.5-1.1 1-1.1.6 0 1 .2 1 .4zm-8 2c0 .3-.4.8-1 1.1-.5.3-1 .1-1-.4 0-.6.5-1.1 1-1.1.6 0 1 .2 1 .4zm-112.3 4.8c-.3.7-.5.2-.5-1.2s.2-1.9.5-1.3c.2.7.2 1.9 0 2.5zM629 572.7c-2 4.5-15.1 23.6-17 24.8-.5.3.5-2.2 2.3-5.7 4.1-8 10.1-22 11.8-27.7l1.3-4.4 1.8 4.3c1.8 4.1 1.8 4.3-.2 8.7zm-273.4 48.8c-2.2 1.7-6.2 2-7 .6-.8-1.2 1.1-1.9 5.4-2 3.3 0 3.4.1 1.6 1.4zM135.8 650c.4 0 .7 1.6.7 3.5s-.1 3.5-.2 3.5c-.2 0-1.2-1.9-2.4-4.1-1.8-3.6-1.9-4.1-.4-3.5.9.3 2 .6 2.3.6z"/><path d="M416.8 222.5c-4.6 2.6-7.1 7.9-7.6 16.7-.5 9 1.2 14.9 5.4 18.9l2.6 2.4-.3-2.6c-.6-4.1 1.7-5.9 7.1-5.9 5.5 0 8.6 2.5 7.5 6-.6 1.8-.3 2.1 1.2 1.8 2.6-.5 6.6-9.3 7.1-16.1.4-5.6-.3-6.8-2.5-4.6-1.5 1.5-5.1.2-5.8-2.1-.8-2.4 1.1-6 3-6s1.9-1.5-.1-4.6c-3.4-5.1-11.8-7-17.6-3.9zM271.3 229c-1.8 1-4 3.1-5 4.6-3.6 5.6-1.2 20.8 4.4 27.4 2.9 3.5 4.7 3.9 3.8.9-1.1-3.4 2-5.9 7.5-5.9 5 0 7.4 1.6 6.8 4.6-.2.9.3 1.9 1 2.1.7.3 2.1-1.4 3.3-4.3 2.3-5 2.2-11.8 0-17.7L292 238l-2 2c-2.4 2.4-3.4 2.5-5.4.4-2.3-2.2-2-3.9 1.2-6.3l2.7-2.1-2.8-2.5c-3.5-3.1-9.8-3.4-14.4-.5z"/><path d="M422.7 259.6c-1.6 1.6-.5 2.5 2.6 2.2 1.7-.2 3.1-.8 3-1.3-.3-1.2-4.6-1.9-5.6-.9zM466 260.9c0 1.3 2.9 3.5 3.7 2.8.7-.8-1.5-3.7-2.8-3.7-.5 0-.9.4-.9.9zM280.7 263.6c-.3.4-.4 1.1-.1 1.5.7 1.2 5.4 1.1 5.4-.1 0-.6-.4-1-.9-1s-1.6-.2-2.3-.5c-.8-.3-1.7-.3-2.1.1zM247 265.1c0 .5.5.7 1 .4.6-.3 1-.8 1-1.1 0-.2-.4-.4-1-.4-.5 0-1 .5-1 1.1zM462 264.9c0 .6.5 1.3 1 1.6.6.3 1-.1 1-.9 0-.9-.4-1.6-1-1.6-.5 0-1 .4-1 .9zM249.5 268.1c-1.1 1.7.1 2.1 1.5.4.8-.9.8-1.5.2-1.5-.6 0-1.4.5-1.7 1.1zM338.1 286.8c-1.5 2.8-1.4 4.2.3 4.2 1.8 0 3.1-3.9 1.8-5.2-.7-.7-1.4-.3-2.1 1zM530.2 292.2c-1.2.6-3.7 3.4-5.4 6.2-2.9 4.6-3.2 5.9-3.3 13.4l-.1 8.3-4.2 4.1c-4.1 3.9-6.2 8.2-4.8 9.6.4.3 1.9-.9 3.3-2.7 1.5-1.8 3.9-4.7 5.5-6.4 3.2-3.5 4.3-8 3.3-12.7-.5-2.3-.4-3 .4-2.6.6.4 1.1 3.1 1.1 6.1 0 5.4 1.5 8 3.1 5.4.5-.8.9-3.5.9-6.1 0-3.5-.6-5.4-2.5-7.6l-2.5-2.9 3.2-4.4c1.7-2.4 3.6-4.7 4.2-5.1.6-.4 2-1.4 3.1-2.2 2-1.5 1.9-1.5-.5-1.5-1.4 0-3.5.5-4.8 1.1zM374 333.3c-.9.9-22.1 3.6-37 4.8-8.6.7-15.8 1.7-17.8 2.7-9.9 4.5-16 18.1-12.2 27.1 2.1 5.1 8.3 8.1 16.6 8.1 6.2 0 7-.2 7.9-2.3 1.3-3 10.3-7.6 16.7-8.6 3-.5 8.1-.5 11.8 0 4.5.7 8 .6 11.5-.2 10.7-2.6 33.3-.8 32.2 2.5-.2.6-1.7 1.9-3.4 2.8-2.3 1.4-7.1 2-21.4 2.9-16.9 1-21.4 1.8-19.6 3.5.4.4 9.4.2 20-.3 21.4-1.2 23.7-1.8 28.3-7.8 3.7-4.9 4.2-10.9 1.4-16.5-3.3-6.5-10.4-13.5-16.3-16-4.7-2.1-17.5-3.9-18.7-2.7zm15.9 4.3c2.8.9-.5 2.4-12.1 5.3-19.5 4.9-24.9 5.5-35.5 3.8-8.9-1.5-15.4-4.1-12.2-5.1.8-.2 9.1-1.2 18.4-2.1 9.4-1 19.5-2.1 22.5-2.5 5.3-.6 16-.3 18.9.6zM202.1 216.5c0 3.1.2 3.6.9 2.3.6-1 .7-2.5.1-4-.9-2-1-1.8-1 1.7zM203.1 229.2c.1 4.2.3 4.8.9 2.8 1.2-3.6 1.2-8 0-8-.6 0-1 2.4-.9 5.2zM200.2 253.5c0 1.6.2 2.2.5 1.2.2-.9.2-2.3 0-3-.3-.6-.5.1-.5 1.8zM208 253.4c0 .8.5 1.8 1 2.1.6.3 1-.1 1-.9s-.4-1.8-1-2.1c-.5-.3-1 .1-1 .9zM211.1 268.6c0 1.1.3 1.4.6.6.3-.7.2-1.6-.1-1.9-.3-.4-.6.2-.5 1.3zM216.1 324.6c0 1.1.3 1.4.6.6.3-.7.2-1.6-.1-1.9-.3-.4-.6.2-.5 1.3zM189 393.5c0 2.9 1.5 4.1 2.4 1.9.9-2.4.7-3.1-.9-3.8-1.1-.4-1.5.1-1.5 1.9zM187.2 401.6c.7 1.5 1.4 2.1 1.6 1.5.5-1.6-.5-4.1-1.7-4.1-.7 0-.6 1 .1 2.6zM178 433.2c0 2-.3 4.3-.6 5.2-.3.9-.1 1.6.4 1.6 1.6 0 2.6-6.5 1.3-8.7-.9-1.5-1-1.2-1.1 1.9zM175.1 446.6c0 1.1.3 1.4.6.6.3-.7.2-1.6-.1-1.9-.3-.4-.6.2-.5 1.3zM528.8 357.5c-.3 1.4-.1 2.5.3 2.5.5 0 .9-.4.9-.9s.3-1.6.6-2.5c.3-.9.2-1.6-.4-1.6-.5 0-1.2 1.1-1.4 2.5zM531.6 357.9c-.4.7-.5 1.5-.2 1.8.9.9 1.9-.4 1.4-1.8-.4-1.1-.6-1.1-1.2 0zM504 371.4c0 1.9-.6 3.7-1.2 3.9-.8.3-.6.6.5.6 1.3.1 1.7-.7 1.7-3.9 0-2.2-.2-4-.5-4s-.5 1.5-.5 3.4zM494.7 370.7c-.4.3-.7 1.1-.7 1.7 0 .6.5.5 1.2-.2.6-.6.9-1.4.7-1.7-.3-.3-.9-.2-1.2.2zM489.6 374.8c-.2.4.7.9 2 1 1.5.1 2.2-.2 1.9-.8-.7-1.2-3.2-1.3-3.9-.2zM273.8 413.7c.6.2 1.8.2 2.5 0 .6-.3.1-.5-1.3-.5-1.4 0-1.9.2-1.2.5zM192.6 515.6c-.4 1-.2 2.2.3 2.7 1.4 1.4 4.3 0 3.9-2-.4-2.4-3.4-2.8-4.2-.7zM194.4 524.4c-.7 1.9.3 3.6 2.2 3.6 1 0 1.4-.8 1.2-2.2-.4-2.6-2.6-3.6-3.4-1.4zM202 538c-1.2.7-1.2 1.3-.4 2.7 1.4 2.3 2.8 2.2 3.2-.1.5-2.4-1-3.7-2.8-2.6zM206.6 546.9c-.9 1.4.4 4.1 2 4.1.8 0 1.4-1 1.4-2.5 0-2.5-2.3-3.5-3.4-1.6zM219.7 562.7c-1.3 1.2-.7 3.3.8 3.3.8 0 1.5-.9 1.5-2 0-2-1.1-2.6-2.3-1.3zM224 571.5c0 .8.5 1.5 1 1.5.6 0 1-.7 1-1.5s-.4-1.5-1-1.5c-.5 0-1 .7-1 1.5zM512.6 582.9c-.9 1.4.5 4.2 1.8 3.8 1.8-.6 2-4.7.2-4.7-.8 0-1.7.4-2 .9zM506 588.9c0 .6.5 1.3 1 1.6.6.3 1-.1 1-.9 0-.9-.4-1.6-1-1.6-.5 0-1 .4-1 .9zM248 596.9c0 .6.5 1.3 1 1.6.6.3 1-.1 1-.9 0-.9-.4-1.6-1-1.6-.5 0-1 .4-1 .9zM481 603.5c0 1.4.5 2.5 1 2.5.6 0 1-1.1 1-2.5s-.4-2.5-1-2.5c-.5 0-1 1.1-1 2.5zM470 612c0 1.9.3 2.1 1.2 1.2.9-.9.9-1.5 0-2.4-.9-.9-1.2-.7-1.2 1.2zM271 614.5c0 .8.5 1.5 1 1.5.6 0 1-.7 1-1.5s-.4-1.5-1-1.5c-.5 0-1 .7-1 1.5zM278 620.4c0 .9.5 1.6 1 1.6.6 0 1-.4 1-.9 0-.6-.4-1.3-1-1.6-.5-.3-1 .1-1 .9zM443 622.5c0 1.7.5 2.5 1.3 2.2.6-.2 1.2-1.2 1.2-2.2 0-1-.6-2-1.2-2.3-.8-.2-1.3.6-1.3 2.3zM325.5 5.2c-6.9 7.6-20.3 26.8-18.8 26.8.5 0 3.7-4 7.3-8.8 3.6-4.7 9.3-11.9 12.8-15.9 3.7-4.3 5.7-7.3 4.9-7.3-.9 0-3.6 2.4-6.2 5.2zM213.7 50c-5.7 5.4-12.3 12.7-14.8 16-6.7 9.2-16.1 25-15.6 26.3.2.7 2.6-2.3 5.3-6.6 8.1-13.1 16.6-23.7 26.3-33.2 5.1-5 9.7-9.8 10.2-10.8 2.2-3.9-1.6-1.2-11.4 8.3zM312.8 53.6c-11.1 23.5-18.5 42-17.3 43.2 1.1 1.1 2.4-1.4 6.8-12.8 2.5-6.3 7-17.3 10.1-24.4 6.8-15.4 7.1-20.1.4-6zM347 143.4c0 1.7 6.3 14.2 9.1 18.1 5.3 7.3 6.4 5.3 1.5-2.8-2.4-3.9-5.2-9-6.2-11.1-1.6-3.4-4.4-6-4.4-4.2zM314 146c-.8 1.6-.8 2 .4 2 1.6 0 2.9-2.7 1.6-3.5-.5-.3-1.4.4-2 1.5zM187.7 180.6c-4 8-8.6 33.6-6.6 36.1 2 2.4 2.9 0 4.4-11.2.8-6 2.4-14.2 3.6-18.2 1.6-5.3 1.9-7.7 1.1-8.5-.7-.7-1.4-.2-2.5 1.8zM180.5 225c.3.5.8 1 1.1 1 .2 0 .4-.5.4-1 0-.6-.5-1-1.1-1-.5 0-.7.4-.4 1zM167.7 228.5c.3 1.1.4 3.1.4 4.5 0 2.4 0 2.4 1.4.6 1.9-2.5 1.9-4.6.1-4.6-.8 0-1.6-.6-1.9-1.3-.2-.6-.2-.3 0 .8zM173.1 231.5c.1 4.8.1 4.9 1 1.7.6-2.1.6-3.9 0-5-.8-1.3-1-.5-1 3.3zM171 237.1c0 1.3.5 3.1 1 3.9.7 1.1.8.5.4-2-.8-4.3-1.4-5.1-1.4-1.9zM182.6 236.8c-.3.6-.1 1.4.5 1.7 1.5 1 2.5-.3 1.2-1.6-.7-.7-1.3-.7-1.7-.1zM138.5 705c1 13.7 1.4 15 4.5 15h2.7l-3-9.3c-4.4-13.6-4.8-14.2-4.2-5.7zM508.5 711.5c-3 4.1-5.5 7.7-5.5 8 0 .3.7.5 1.5.5 1.6 0 11.5-12.6 11.5-14.6 0-2.9-2.1-1.1-7.5 6.1zM126.6 708.9c-.4.7-.2 3.4.4 6.1 1 4.3 1.5 5 3.6 5 3 0 3-.2-.5-6.9-1.8-3.4-3.1-5-3.5-4.2z"/></svg>